<svg width="83" height="75" viewBox="0 0 83 75" fill="none" xmlns="http://www.w3.org/2000/svg">
<path d="M4.43037 67.7408L39.562 5.28849C39.7565 4.94543 40.0384 4.66007 40.3791 4.46154C40.7198 4.26302 41.1071 4.15842 41.5014 4.15842C41.8957 4.15842 42.283 4.26302 42.6237 4.46154C42.9644 4.66007 43.2464 4.94543 43.4408 5.28849L78.5725 67.7408C78.7959 68.1412 78.8905 68.6007 78.8433 69.0568C78.796 69.5129 78.6093 69.9433 78.3085 70.2894C78.0078 70.6355 77.6076 70.8804 77.1626 70.9908C76.7175 71.1012 76.2493 71.0717 75.8217 70.9062L42.3084 57.879C41.7893 57.6774 41.2135 57.6774 40.6945 57.879L7.18116 70.9107C6.75299 71.0771 6.28387 71.1071 5.83797 70.9967C5.39207 70.8863 4.99116 70.6409 4.69008 70.2939C4.389 69.947 4.20247 69.5155 4.15598 69.0585C4.10949 68.6015 4.20532 68.1413 4.43037 67.7408Z" stroke="black" stroke-width="6.6875" stroke-linecap="round" stroke-linejoin="round"/>
</svg>
