<svg xmlns="http://www.w3.org/2000/svg"  viewBox="0 0 48 48" width="48px" height="48px" baseProfile="basic"><linearGradient id="AraffhWwwEqZfgFEBZFoqa" x1="18.102" x2="25.297" y1="3.244" y2="34.74" gradientUnits="userSpaceOnUse"><stop offset="0" stop-color="#35ab4a"/><stop offset=".297" stop-color="#31a145"/><stop offset=".798" stop-color="#288739"/><stop offset="1" stop-color="#237a33"/></linearGradient><path fill="url(#AraffhWwwEqZfgFEBZFoqa)" d="M13.488,4.012C10.794,2.508,7.605,3.778,6.45,6.323L24.126,24l9.014-9.014L13.488,4.012z"/><linearGradient id="AraffhWwwEqZfgFEBZFoqb" x1="19.158" x2="21.194" y1="23.862" y2="66.931" gradientUnits="userSpaceOnUse"><stop offset="0" stop-color="#f14e5d"/><stop offset=".499" stop-color="#ea3d4f"/><stop offset="1" stop-color="#e12138"/></linearGradient><path fill="url(#AraffhWwwEqZfgFEBZFoqb)" d="M33.14,33.014L24.126,24L6.45,41.677 c1.156,2.546,4.345,3.815,7.038,2.312L33.14,33.014z"/><linearGradient id="AraffhWwwEqZfgFEBZFoqc" x1="32.943" x2="36.541" y1="14.899" y2="43.612" gradientUnits="userSpaceOnUse"><stop offset="0" stop-color="#ffd844"/><stop offset=".519" stop-color="#ffc63f"/><stop offset="1" stop-color="#ffb03a"/></linearGradient><path fill="url(#AraffhWwwEqZfgFEBZFoqc)" d="M41.419,28.393 c1.72-0.96,2.58-2.676,2.581-4.393c-0.001-1.717-0.861-3.434-2.581-4.393l-8.279-4.621L24.126,24l9.014,9.014L41.419,28.393z"/><linearGradient id="AraffhWwwEqZfgFEBZFoqd" x1="13.853" x2="15.572" y1="5.901" y2="42.811" gradientUnits="userSpaceOnUse"><stop offset=".003" stop-color="#0090e6"/><stop offset="1" stop-color="#0065a0"/></linearGradient><path fill="url(#AraffhWwwEqZfgFEBZFoqd)" d="M6.45,6.323C6.168,6.948,6,7.652,6,8.408 v31.179c0,0.761,0.164,1.463,0.45,2.09l17.674-17.68L6.45,6.323z"/></svg>