<svg width="24" height="24" viewBox="0 0 24 24" fill="none" xmlns="http://www.w3.org/2000/svg">
  <g clip-path="url(#clip0_2394_49)">
  <path d="M19.4998 12.5722L11.9998 20.0002L4.49981 12.5722C4.00512 12.0908 3.61546 11.5122 3.35536 10.8728C3.09527 10.2334 2.97037 9.54713 2.98855 8.85711C3.00673 8.16709 3.16758 7.48831 3.46097 6.86351C3.75436 6.23871 4.17395 5.68143 4.6933 5.22676C5.21265 4.77208 5.82052 4.42987 6.47862 4.22166C7.13673 4.01345 7.83082 3.94376 8.51718 4.01698C9.20354 4.0902 9.86731 4.30473 10.4667 4.64708C11.0661 4.98943 11.5881 5.45218 11.9998 6.00618C12.4133 5.4562 12.9359 4.9975 13.5349 4.65878C14.1339 4.32007 14.7963 4.10863 15.4807 4.0377C16.1652 3.96677 16.8569 4.03787 17.5126 4.24657C18.1683 4.45526 18.7738 4.79705 19.2914 5.25054C19.8089 5.70403 20.2272 6.25946 20.5202 6.88207C20.8132 7.50468 20.9746 8.18106 20.9941 8.86889C21.0137 9.55671 20.8911 10.2412 20.6339 10.8794C20.3768 11.5177 19.9907 12.096 19.4998 12.5782" stroke="#FD6978" stroke-width="2" stroke-linecap="round" stroke-linejoin="round"/>
  <path d="M11.9998 6L8.70685 9.293C8.51938 9.48053 8.41406 9.73484 8.41406 10C8.41406 10.2652 8.51938 10.5195 8.70685 10.707L9.24985 11.25C9.93985 11.94 11.0598 11.94 11.7498 11.25L12.7498 10.25C13.3466 9.65327 14.1559 9.31803 14.9998 9.31803C15.8438 9.31803 16.6531 9.65327 17.2498 10.25L19.4998 12.5" stroke="#FD6978" stroke-width="2" stroke-linecap="round" stroke-linejoin="round"/>
  <path d="M12.5 15.5L14.5 17.5" stroke="#FD6978" stroke-width="2" stroke-linecap="round" stroke-linejoin="round"/>
  <path d="M15 13L17 15" stroke="#FD6978" stroke-width="2" stroke-linecap="round" stroke-linejoin="round"/>
  </g>
  <defs>
  <clipPath id="clip0_2394_49">
  <rect width="24" height="24" fill="white"/>
  </clipPath>
  </defs>
  </svg>
  